<?xml version="1.0" encoding="utf-8"?>
<!-- Generator: Adobe Illustrator 19.2.0, SVG Export Plug-In . SVG Version: 6.00 Build 0)  -->
<svg version="1.1" id="Layer_1" xmlns="http://www.w3.org/2000/svg" xmlns:xlink="http://www.w3.org/1999/xlink" x="0px" y="0px"
	 viewBox="0 0 100 100" style="enable-background:new 0 0 100 100;" xml:space="preserve">
<style type="text/css">
	.st0{fill:#F2F2F2;}
	.st1{fill:#E5E5E5;}
	.st2{fill:#666666;}
	.st3{fill:#F7D04A;}
	.st4{fill:#F3B41B;}
	.st5{fill:#EB6836;}
	.st6{fill:#62C9CC;}
	.st7{fill:#EF9D3C;}
	.st8{fill:#50A9A9;}
	.st9{fill:#808080;}
</style>
<path class="st0" d="M99.5,22.2L82.8,5.5C82.5,5.2,82.1,5,81.7,5H18.3c-0.9,0-1.6,0.7-1.6,1.6v91.9c0,0.9,0.7,1.6,1.6,1.6h80.2
	c0.9,0,1.6-0.7,1.6-1.6V23.3C100,22.9,99.8,22.5,99.5,22.2z"/>
<g>
	<path class="st1" d="M100,23.2c0-0.4-0.2-0.8-0.5-1L82.8,5.5C82.5,5.2,82.1,5,81.7,5h-0.1v16.6c0,0.9,0.7,1.6,1.6,1.6L100,23.2
		L100,23.2z"/>
	<path class="st1" d="M18.3,5c-0.9,0-1.6,0.7-1.6,1.6v91.9c0,0.9,0.7,1.6,1.6,1.6h73.4L26.6,5H18.3z"/>
</g>
<path class="st2" d="M41.9,0H4.7C2.1,0,0,2.1,0,4.7v50.5c0,2.6,2.1,4.7,4.7,4.7h37.2c2.6,0,4.7-2.1,4.7-4.7V4.7
	C46.6,2.1,44.4,0,41.9,0z"/>
<path class="st3" d="M70,48.4c-12.8,0-23.3,10.4-23.3,23.3S57.2,95,70,95s23.3-10.4,23.3-23.3S82.9,48.4,70,48.4z"/>
<path class="st4" d="M74.6,90.4c-12.8,0-23.3-10.4-23.3-23.3c0-5.2,1.7-10.1,4.7-14c-5.6,4.3-9.3,11-9.3,18.6
	C46.8,84.5,57.2,95,70,95c7.6,0,14.3-3.6,18.6-9.3C84.7,88.6,79.9,90.4,74.6,90.4z"/>
<path class="st5" d="M73.6,70.4l-2.4-0.1v-8.7h5.5c0.9,0,1.6-0.7,1.6-1.6c0-0.9-0.7-1.6-1.6-1.6h-5.5v-1.8c0-0.9-0.7-1.6-1.6-1.6
	c-0.9,0-1.6,0.7-1.6,1.6v1.8h-1.6c-2.6,0-4.7,2.1-4.7,4.7v5.4c0,2.6,2.1,4.7,4.7,4.7l1.6,0v8.5h-4.7c-0.9,0-1.6,0.7-1.6,1.6
	c0,0.9,0.7,1.6,1.6,1.6h4.7v1.8c0,0.9,0.7,1.6,1.6,1.6c0.9,0,1.6-0.7,1.6-1.6V85h2.4c2.6,0,4.7-2.1,4.7-4.7v-5.2
	C78.3,72.5,76.2,70.4,73.6,70.4z M66.5,70.1C66.5,70.1,66.5,70.1,66.5,70.1c-0.9,0-1.6-0.7-1.6-1.6v-5.4c0-0.9,0.7-1.6,1.6-1.6h1.6
	v8.6L66.5,70.1z M75.2,80.3c0,0.9-0.7,1.6-1.6,1.6h-2.4v-8.4l2.4,0.1c0,0,0,0,0,0c0.9,0,1.6,0.7,1.6,1.6V80.3z"/>
<path class="st0" d="M40,5H6.6C5.7,5,5,5.7,5,6.6v8.4c0,0.9,0.7,1.6,1.6,1.6H40c0.9,0,1.6-0.7,1.6-1.6V6.6C41.5,5.7,40.8,5,40,5z"/>
<g>
	<path class="st6" d="M6.6,5C5.7,5,5,5.7,5,6.6v8.4c0,0.9,0.7,1.6,1.6,1.6h6.8L24.8,5L6.6,5L6.6,5z"/>
	<path class="st6" d="M40,5h-5.8L22.7,16.5H40c0.9,0,1.6-0.7,1.6-1.6V6.6C41.5,5.7,40.8,5,40,5z"/>
</g>
<g>
	<path class="st7" d="M13.3,18.4H6.6c-0.9,0-1.6,0.7-1.6,1.6v6.7c0,0.9,0.7,1.6,1.6,1.6h6.7c0.9,0,1.6-0.7,1.6-1.6v-6.7
		C14.8,19.1,14.1,18.4,13.3,18.4z"/>
	<path class="st7" d="M26.5,18.4h-6.7c-0.9,0-1.6,0.7-1.6,1.6v6.7c0,0.9,0.7,1.6,1.6,1.6h6.7c0.9,0,1.6-0.7,1.6-1.6v-6.7
		C28.1,19.1,27.4,18.4,26.5,18.4z"/>
	<path class="st7" d="M13.3,31.7H6.6c-0.9,0-1.6,0.7-1.6,1.6V40c0,0.9,0.7,1.6,1.6,1.6h6.7c0.9,0,1.6-0.7,1.6-1.6v-6.7
		C14.8,32.4,14.1,31.7,13.3,31.7z"/>
	<path class="st7" d="M26.5,31.7h-6.7c-0.9,0-1.6,0.7-1.6,1.6V40c0,0.9,0.7,1.6,1.6,1.6h6.7c0.9,0,1.6-0.7,1.6-1.6v-6.7
		C28.1,32.4,27.4,31.7,26.5,31.7z"/>
	<path class="st7" d="M13.3,45.1H6.6c-0.9,0-1.6,0.7-1.6,1.6v6.7c0,0.9,0.7,1.6,1.6,1.6h6.7c0.9,0,1.6-0.7,1.6-1.6v-6.7
		C14.8,45.8,14.1,45.1,13.3,45.1z"/>
	<path class="st7" d="M26.5,45.1h-6.7c-0.9,0-1.6,0.7-1.6,1.6v6.7c0,0.9,0.7,1.6,1.6,1.6h6.7c0.9,0,1.6-0.7,1.6-1.6v-6.7
		C28.1,45.8,27.4,45.1,26.5,45.1z"/>
	<path class="st7" d="M39.9,18.4h-6.7c-0.9,0-1.6,0.7-1.6,1.6v6.7c0,0.9,0.7,1.6,1.6,1.6h6.7c0.9,0,1.6-0.7,1.6-1.6v-6.7
		C41.4,19.1,40.7,18.4,39.9,18.4z"/>
</g>
<path class="st3" d="M40,31.7h-6.7c-0.9,0-1.6,0.7-1.6,1.6v20c0,0.9,0.7,1.6,1.6,1.6H40c0.9,0,1.6-0.7,1.6-1.6v-20
	C41.5,32.4,40.8,31.7,40,31.7z"/>
<path class="st2" d="M58.2,18.2c-0.4,0-0.9-0.2-1.2-0.5l-3-3.3c-0.6-0.6-0.5-1.6,0.1-2.2c0.6-0.6,1.6-0.5,2.2,0.1l3,3.3
	c0.6,0.6,0.5,1.6-0.1,2.2C58.9,18,58.5,18.2,58.2,18.2z"/>
<g>
	<path class="st6" d="M90.6,41.8L65.7,16.9c-0.2-0.2-0.5-0.4-0.8-0.4L59,15.3c-0.5-0.1-1,0.1-1.4,0.4c-0.4,0.4-0.5,0.9-0.4,1.4
		l1.2,5.9c0.1,0.3,0.2,0.6,0.4,0.8l24.9,24.9c1,1,2.4,1.5,3.8,1.3c1.3-0.1,2.2-0.8,3.1-1.6C92.5,46.6,92.5,43.7,90.6,41.8z"/>
	<rect x="65.9" y="16.8" transform="matrix(0.7071 -0.7071 0.7071 0.7071 0.2958 58.5194)" class="st6" width="9.8" height="24.2"/>
</g>
<path class="st3" d="M59,15.3c-1.1-0.2-2.1,0.8-1.8,1.8l1.2,5.9c0.1,0.3,0.2,0.6,0.4,0.8l6.9-6.9c-0.2-0.2-0.5-0.4-0.8-0.4L59,15.3z
	"/>
<path class="st8" d="M90.6,41.8L82.8,34l-6.9,6.9l7.8,7.8c1,1,2.4,1.5,3.8,1.3c1.3-0.1,2.3-0.7,3.2-1.6
	C92.5,46.6,92.5,43.7,90.6,41.8z"/>
<path class="st2" d="M88.2,43.2c-0.4,0-0.8-0.2-1.1-0.5c-0.6-0.6-0.6-1.6,0-2.2l2.4-2.4l-7.4-7c-0.6-0.6-0.7-1.6-0.1-2.2
	c0.6-0.6,1.6-0.7,2.2-0.1l8.5,8.1c0.3,0.3,0.5,0.7,0.5,1.1c0,0.4-0.2,0.8-0.5,1.1l-3.5,3.5C89,43,88.6,43.2,88.2,43.2z"/>
<g>
	<path class="st9" d="M38.7,74.9H28.3c-0.9,0-1.6-0.7-1.6-1.6c0-0.9,0.7-1.6,1.6-1.6h10.4c0.9,0,1.6,0.7,1.6,1.6
		C40.3,74.2,39.6,74.9,38.7,74.9z"/>
	<path class="st9" d="M38.7,83.3H28.3c-0.9,0-1.6-0.7-1.6-1.6s0.7-1.6,1.6-1.6h10.4c0.9,0,1.6,0.7,1.6,1.6S39.6,83.3,38.7,83.3z"/>
</g>
</svg>
