<?xml version="1.0" encoding="utf-8"?>
<!-- Generator: Adobe Illustrator 19.2.0, SVG Export Plug-In . SVG Version: 6.00 Build 0)  -->
<svg version="1.1" id="Capa_1" xmlns="http://www.w3.org/2000/svg" xmlns:xlink="http://www.w3.org/1999/xlink" x="0px" y="0px"
	 viewBox="0 0 30 30" style="enable-background:new 0 0 30 30;" xml:space="preserve">
<style type="text/css">
	.st0{fill:#006DF0;}
</style>
<g>
	<g>
		<path class="st0" d="M2.9,23.3L5,25.3h-4v0.9h5.2l0.5-0.5v-5.2H5.6v4l-2-2c-4-5.4-3.5-13,1.3-17.8c2.6-2.6,6-4,9.6-4V0
			C10.6,0,7,1.5,4.2,4.2C-0.8,9.3-1.4,17.5,2.9,23.3z"/>
		<path class="st0" d="M25,4.7h4V3.7h-5.2l-0.5,0.5v5.2h0.9v-4l2,2c4,5.4,3.5,13-1.3,17.8c-2.6,2.6-6,4-9.6,4V30
			c3.9,0,7.5-1.5,10.3-4.3c5.1-5.1,5.7-13.3,1.4-19L25,4.7z"/>
	</g>
</g>
</svg>
